<svg width="426" height="137" viewBox="0 0 426 137" fill="none" xmlns="http://www.w3.org/2000/svg">
<path d="M31.68 120.78V118.62C30.42 129.96 24.3 135.54 15.66 135.54C6.12 135.54 0 128.88 0 117.36V101.7C0 89.64 4.32 83.34 15.84 76.5C28.98 68.58 31.86 65.16 31.86 53.28C31.86 47.7 30.96 45 28.98 45C26.64 45 25.2 48.24 25.2 54.36C25.2 57.96 25.56 62.46 26.82 67.86H2.7C1.8 63.72 1.44 59.76 1.44 56.34C1.44 36.54 13.5 27 29.16 27C51.12 27 56.34 41.22 56.34 57.42V117.9H61.02C61.2 119.16 61.38 120.24 61.38 121.32C61.38 130.5 54.72 135.72 46.26 135.72C38.16 135.72 31.68 130.32 31.68 120.78ZM31.68 114.12V77.94C30.96 79.74 29.52 81.72 28.08 83.7C25.2 88.02 25.02 92.16 25.02 97.56V113.94C25.02 117.72 25.38 120.24 28.26 120.24C30.78 120.24 31.68 117.36 31.68 114.12Z" fill="black"/>
<path d="M80.2097 131.94C78.4097 131.94 77.1497 132.66 76.9697 134.64H64.3697V95.76H87.4097V112.68C87.4097 117 88.4897 119.7 91.1897 119.7C93.8897 119.7 94.7897 116.64 94.7897 112.5C94.7897 88.02 64.0097 87.3 64.0097 55.08C64.0097 37.26 74.6297 27 87.9497 27C96.0497 27 98.2097 31.14 102.17 31.14C103.97 31.14 105.05 30.24 105.41 28.44H118.01V66.06H94.7897V50.4C94.7897 45.9 94.0697 43.38 91.3697 43.38C88.6697 43.38 87.9497 46.26 87.9497 50.4C87.9497 74.34 118.91 74.34 118.91 107.46C118.91 124.74 108.65 136.08 95.3297 136.08C86.6897 136.08 83.9897 131.94 80.2097 131.94Z" fill="black"/>
<path d="M120.825 117.9H122.445C124.065 117.9 124.605 117 124.605 115.56V20.34C124.605 18.9 124.065 18.18 122.445 18.18H120.825V1.44H149.985V75.06L159.885 47.7C160.425 46.08 159.885 45.18 158.265 45.18H155.925V28.44H186.525V45.18H184.545C183.105 45.18 182.565 45.9 182.025 47.34L173.385 69.84L182.925 115.56C183.285 117.18 183.645 117.9 185.085 117.9H186.525V134.64H154.485V117.9H155.385C157.005 117.9 157.545 117 157.185 115.56L149.985 76.5V115.56C149.985 117 150.345 117.9 151.965 117.9H153.045V134.64H120.825V117.9Z" fill="black"/>
<path d="M227.675 117.9H233.075C234.695 117.9 235.055 117 235.055 115.56V18.18H234.515C232.535 18.18 231.455 19.08 231.455 21.96V51.84H209.855V1.44H287.255V51.84H265.655V21.96C265.655 19.08 264.575 18.18 262.595 18.18H262.055V115.56C262.055 117 262.595 117.9 264.035 117.9H269.435V134.64H227.675V117.9Z" fill="black"/>
<path d="M292.56 104.22V31.68C292.56 10.98 303.72 0 319.74 0C329.28 0 331.8 4.86 336.3 4.86C338.1 4.86 339.9 3.77999 340.44 1.44H352.86V51.84H327.48V25.92C327.48 20.88 326.58 17.82 323.52 17.82C320.28 17.82 319.38 20.88 319.38 25.92V109.98C319.38 115.02 320.1 118.26 323.52 118.26C326.4 118.26 327.3 115.74 327.3 111.78V84.96C327.3 83.52 326.76 82.8 325.32 82.8H323.16V66.06H356.82V82.8H354.84C353.22 82.8 352.86 83.52 352.86 84.96V134.64H340.44C339.9 132.12 338.1 131.04 336.3 131.04C331.8 131.04 329.28 136.08 319.38 136.08C303.72 136.26 292.56 124.92 292.56 104.22Z" fill="black"/>
<path d="M359.177 117.9H361.697C363.137 117.9 363.677 117 363.677 115.56V20.34C363.677 18.9 363.137 18.18 361.697 18.18H359.177V1.44H398.237C414.977 1.44 425.417 10.98 425.417 28.26V50.94C425.417 68.04 414.977 77.58 398.237 77.58H390.497V115.56C390.497 117 391.037 117.9 392.477 117.9H397.877V134.64H359.177V117.9ZM393.557 60.84C397.517 60.84 398.597 58.86 398.597 52.92V26.1C398.597 20.16 397.517 18.18 393.557 18.18H390.677V60.84H393.557Z" fill="black"/>
</svg>
