<svg width="388" height="106" viewBox="0 0 388 106" fill="none" xmlns="http://www.w3.org/2000/svg">
<path d="M0 91.7H1.96C3.08 91.7 3.5 91 3.5 89.88V15.82C3.5 14.7 3.08 14.14 1.96 14.14H0V1.12H31.22L33.88 31.92L35.42 49.98H35.7L37.24 31.92L40.04 1.12H70.14V14.14H68.18C67.06 14.14 66.64 14.7 66.64 15.82V89.88C66.64 91 67.06 91.7 68.18 91.7H70.14V104.72H42.7V91.7H45.08C46.34 91.7 46.62 91 46.62 89.88V56.84L46.9 36.26H46.62L44.94 56.84L40.74 104.72H24.08L19.74 56.84L18.2 36.26H17.92L18.06 56.84V89.88C18.06 91 18.48 91.7 19.6 91.7H22.12V104.72H0V91.7Z" fill="black"/>
<path d="M75.297 81.06V24.64C75.297 7.84 84.257 0 99.377 0C114.357 0 123.317 7.84 123.317 24.64V81.06C123.317 97.86 114.357 105.84 99.377 105.84C84.257 105.84 75.297 97.86 75.297 81.06ZM102.457 85.68V20.16C102.457 16.24 101.757 13.86 99.377 13.86C96.857 13.86 96.157 16.24 96.157 20.16V85.68C96.157 89.6 96.857 91.98 99.377 91.98C101.757 91.98 102.457 89.46 102.457 85.68Z" fill="black"/>
<path d="M128.51 91.7H130.47C131.59 91.7 132.01 91 132.01 89.88V15.82C132.01 14.7 131.59 14.14 130.47 14.14H128.51V1.12H154.41L164.91 47.32H165.19V15.82C165.19 14.7 164.91 14.14 163.65 14.14H161.97V1.12H183.39V14.14H181.57C180.31 14.14 180.03 14.7 180.03 15.82V104.72H161.69L146.99 39.76H146.71V89.88C146.71 91 147.13 91.7 148.25 91.7H150.07V104.72H128.51V91.7Z" fill="black"/>
<path d="M187.365 91.7H189.325C190.445 91.7 190.865 91 190.865 89.88V15.82C190.865 14.7 190.445 14.14 189.325 14.14H187.365V1.12H217.745C230.765 1.12 238.885 8.54 238.885 21.98V83.86C238.885 97.3 230.765 104.72 217.745 104.72H187.365V91.7ZM214.105 91.7C217.185 91.7 218.025 90.16 218.025 85.4V20.3C218.025 15.68 217.185 14.14 214.105 14.14H211.865V91.7H214.105Z" fill="black"/>
<path d="M245.845 81.06V24.64C245.845 7.84 254.805 0 269.925 0C284.905 0 293.865 7.84 293.865 24.64V81.06C293.865 97.86 284.905 105.84 269.925 105.84C254.805 105.84 245.845 97.86 245.845 81.06ZM273.005 85.68V20.16C273.005 16.24 272.305 13.86 269.925 13.86C267.405 13.86 266.705 16.24 266.705 20.16V85.68C266.705 89.6 267.405 91.98 269.925 91.98C272.305 91.98 273.005 89.46 273.005 85.68Z" fill="black"/>
<path d="M301.35 95.37H307.09V102.72H301.35V95.37Z" fill="black"/>
<path d="M308.727 56.31C308.657 55.47 308.307 55.12 307.607 55.12H306.767V50.92H316.287V55.12H315.517C314.817 55.12 314.467 55.47 314.537 56.31L316.637 83.05L316.917 89.07H317.057L317.547 83.05L319.857 56.31C319.927 55.47 319.577 55.12 318.807 55.12H318.107V50.92H326.647V55.12H325.877C325.107 55.12 324.757 55.47 324.827 56.31L327.137 83.05L327.557 89.07H327.697L328.047 83.05L330.147 56.31C330.217 55.47 329.937 55.12 329.167 55.12H328.467V50.92H336.797V55.12H336.027C335.257 55.12 334.907 55.47 334.837 56.31L330.567 102.72H324.757L321.887 68.56H321.747L318.807 102.72H313.067L308.727 56.31Z" fill="black"/>
<path d="M338.657 98.52H339.987C340.757 98.52 341.037 98.24 341.037 97.33V56.31C341.037 55.4 340.757 55.12 339.987 55.12H338.657V50.92H349.297V55.12H347.967C347.197 55.12 346.917 55.4 346.917 56.31V97.33C346.917 98.24 347.197 98.52 347.967 98.52H349.297V102.72H338.657V98.52Z" fill="black"/>
<path d="M351.268 98.52H352.598C353.368 98.52 353.648 98.24 353.648 97.33V56.31C353.648 55.4 353.368 55.12 352.598 55.12H351.268V50.92H362.328V55.12H360.578C359.808 55.12 359.528 55.4 359.528 56.31V75L367.718 56.31C368.068 55.47 367.718 55.12 366.948 55.12H365.128V50.92H374.998V55.12H373.598C372.828 55.12 372.548 55.4 372.128 56.31L364.638 72.97L372.478 97.33C372.758 98.17 373.108 98.52 373.808 98.52H375.068V102.72H364.568V98.52H365.758C366.528 98.52 366.878 98.1 366.598 97.33L359.528 75.77V97.33C359.528 98.24 359.808 98.52 360.578 98.52H361.768V102.72H351.268V98.52Z" fill="black"/>
<path d="M376.935 98.52H378.265C379.035 98.52 379.315 98.24 379.315 97.33V56.31C379.315 55.4 379.035 55.12 378.265 55.12H376.935V50.92H387.575V55.12H386.245C385.475 55.12 385.195 55.4 385.195 56.31V97.33C385.195 98.24 385.475 98.52 386.245 98.52H387.575V102.72H376.935V98.52Z" fill="black"/>
</svg>
