<svg width="145" height="94" viewBox="0 0 145 94" fill="none" xmlns="http://www.w3.org/2000/svg">
<path d="M1.08 68.232V62.184C1.08 57 2.952 54.696 6.624 51.888C10.584 48.792 12.528 47.424 12.528 41.448C12.528 38.136 11.808 36.336 9.864 36.336C7.776 36.336 6.768 38.856 6.768 42.384C6.768 44.328 7.128 46.632 7.776 49.008H2.232C1.656 46.704 1.44 44.544 1.44 42.6C1.44 35.904 4.608 31.944 9.792 31.944C16.056 31.944 18 36.48 18 43.032V70.752H20.232C20.304 71.04 20.304 71.4 20.304 71.688C20.304 74.208 18.648 75.36 16.488 75.36C14.328 75.36 12.528 73.992 12.528 71.112V69.312C12.24 73.2 10.008 75.36 6.768 75.36C3.096 75.36 1.08 72.48 1.08 68.232ZM12.456 66.864V49.44C12.024 51.024 10.656 52.752 9.144 54.624C7.272 56.928 6.696 59.088 6.696 62.256V67.008C6.696 69.816 7.488 71.544 9.504 71.544C11.376 71.544 12.456 69.6 12.456 66.864ZM25.2866 73.56C24.6386 73.56 24.2786 73.92 24.2066 75H22.0466V57.864H27.2306V67.656C27.2306 69.744 28.0226 71.76 30.1826 71.76C32.1266 71.76 32.9906 69.6 32.9906 66.144C32.9906 54.192 21.9026 54.264 21.9026 42.024C21.8306 35.976 25.0706 31.944 29.6066 31.944C32.7026 31.944 33.4946 33.96 34.7906 33.96C35.4386 33.96 35.8706 33.6 35.9426 32.52H38.1026V49.008H32.8466V39.864C32.8466 37.776 32.2706 35.76 30.2546 35.76C28.3106 35.76 27.5186 37.92 27.5186 41.088C27.5186 52.104 38.7506 51.672 38.7506 65.208C38.7506 71.4 35.7266 75.576 31.1906 75.576C27.7346 75.576 26.6546 73.56 25.2866 73.56ZM40.1186 70.68H41.1986C41.9906 70.68 42.2786 70.392 42.2786 69.456V27.264C42.2786 26.328 41.9906 26.04 41.1986 26.04H40.1186V21.72H48.0386V69.456C48.0386 70.392 48.3266 70.68 49.1186 70.68H49.9106V75H40.1186V70.68ZM52.1426 70.68H52.9346C53.7266 70.68 54.0866 70.248 53.7986 69.384L48.0386 51.888L54.5906 38.136C54.9506 37.272 54.6626 36.84 53.7986 36.84H52.6466V32.52H61.7906V36.84H60.7106C59.8466 36.84 59.5586 37.2 59.1266 38.136L53.2946 49.872L59.7746 69.384C59.9906 70.32 60.2786 70.68 61.1426 70.68H61.8626V75H52.1426V70.68Z" fill="#111111"/>
<path d="M72.624 68.952H74.712C75.504 68.952 75.792 68.52 75.792 67.584V27.768H75.576C74.28 27.768 73.488 28.272 73.488 30.144V42.888H66.288V21.72H93.936V42.888H86.736V30.144C86.736 28.272 85.944 27.768 84.648 27.768H84.432V67.584C84.432 68.52 84.72 68.952 85.512 68.952H87.6V75H72.624V68.952ZM96.2833 64.776V31.872C96.2833 24.96 100.243 21.144 105.859 21.144C109.387 21.144 110.251 23.304 112.051 23.304C112.843 23.304 113.419 22.728 113.563 21.72H116.875V42.888H108.811V31.224C108.811 28.992 108.235 27.696 106.867 27.696C105.427 27.696 104.851 28.992 104.851 31.224V65.496C104.851 67.656 105.355 69.024 106.867 69.024C108.019 69.024 108.667 68.232 108.667 66.936V55.128C108.667 54.192 108.379 53.76 107.587 53.76H106.507V47.712H119.035V53.76H117.955C117.163 53.76 116.875 54.192 116.875 55.128V75H113.563C113.419 73.992 112.843 73.416 112.051 73.416C110.251 73.416 109.387 75.576 105.571 75.576C100.315 75.576 96.2833 71.688 96.2833 64.776ZM119.97 68.952H121.338C122.13 68.952 122.418 68.52 122.418 67.584V29.136C122.418 28.2 122.13 27.768 121.338 27.768H119.97V21.72H133.65C139.77 21.72 143.514 25.32 143.514 31.8V41.736C143.514 48.144 139.77 51.744 133.65 51.744H130.986V67.584C130.986 68.52 131.274 68.952 132.066 68.952H134.874V75H119.97V68.952ZM132.93 45.696C134.37 45.696 134.946 44.4 134.946 42.096V31.44C134.946 29.064 134.37 27.768 132.93 27.768H131.058V45.696H132.93Z" fill="#111111"/>
</svg>
