<svg width="24" height="24" viewBox="0 0 24 24" fill="none" xmlns="http://www.w3.org/2000/svg">
<path fill-rule="evenodd" clip-rule="evenodd" d="M12 0C5.36728 0 0 5.3643 0 12C0 18.6326 5.36745 24 12 24C18.6357 24 24 18.6327 24 12C24 5.36412 18.6359 0 12 0ZM7.425 6.9C7.44686 6.8988 7.46877 6.8988 7.49063 6.9C7.57076 6.89939 7.65021 6.91484 7.72427 6.94543C7.79834 6.97602 7.86553 7.02114 7.92188 7.07813L12 11.1469L16.0688 7.07813C16.178 6.96757 16.3259 6.90371 16.4813 6.9C16.6028 6.89518 16.7229 6.92737 16.8257 6.99234C16.9285 7.05731 17.0091 7.15199 17.0569 7.26381C17.1046 7.37564 17.1173 7.49933 17.0932 7.61852C17.0691 7.73772 17.0094 7.84678 16.9219 7.93125L12.8438 12.0094L16.9219 16.0781C16.9779 16.1341 17.0223 16.2006 17.0527 16.2738C17.083 16.347 17.0986 16.4255 17.0986 16.5047C17.0986 16.5839 17.083 16.6624 17.0527 16.7356C17.0224 16.8088 16.978 16.8753 16.9219 16.9313C16.8659 16.9873 16.7994 17.0318 16.7262 17.0621C16.653 17.0924 16.5746 17.108 16.4953 17.108C16.4161 17.108 16.3377 17.0924 16.2645 17.0621C16.1913 17.0317 16.1248 16.9873 16.0688 16.9313L12 12.8531L7.92188 16.9313C7.80874 17.0444 7.6553 17.1079 7.49532 17.1079C7.33534 17.1079 7.18192 17.0443 7.06879 16.9312C6.95567 16.8181 6.89211 16.6647 6.89211 16.5047C6.8921 16.3447 6.95564 16.1912 7.06875 16.0781L11.1375 12.0094L7.06875 7.93125C6.98564 7.8519 6.92706 7.75035 6.89997 7.63868C6.87289 7.52701 6.87843 7.4099 6.91595 7.30129C6.95347 7.19268 7.02139 7.09713 7.11163 7.026C7.20187 6.95486 7.31063 6.91113 7.425 6.9Z" fill="black"/>
</svg>
