<svg width="20" height="20" viewBox="0 0 20 20" fill="none" xmlns="http://www.w3.org/2000/svg">
<g clip-path="url(#clip0_308_457)">
<path d="M4.1665 12.5H3.33317C2.89114 12.5 2.46722 12.3244 2.15466 12.0119C1.8421 11.6993 1.6665 11.2754 1.6665 10.8334V3.33335C1.6665 2.89133 1.8421 2.4674 2.15466 2.15484C2.46722 1.84228 2.89114 1.66669 3.33317 1.66669H10.8332C11.2752 1.66669 11.6991 1.84228 12.0117 2.15484C12.3242 2.4674 12.4998 2.89133 12.4998 3.33335V4.16669M9.1665 7.50002H16.6665C17.587 7.50002 18.3332 8.24621 18.3332 9.16669V16.6667C18.3332 17.5872 17.587 18.3334 16.6665 18.3334H9.1665C8.24603 18.3334 7.49984 17.5872 7.49984 16.6667V9.16669C7.49984 8.24621 8.24603 7.50002 9.1665 7.50002Z" stroke="#1E1E1E" stroke-width="2.4" stroke-linecap="round" stroke-linejoin="round"/>
</g>
<defs>
<clipPath id="clip0_308_457">
<rect width="20" height="20" fill="white"/>
</clipPath>
</defs>
</svg>
